<svg width="53" height="54" viewBox="0 0 53 54" fill="none" xmlns="http://www.w3.org/2000/svg">
<path d="M3.86969 29.0414L0.971416 12.8391C0.920849 12.5608 0.933071 12.2744 1.00716 12.0017C1.08125 11.7289 1.21525 11.477 1.39903 11.2648C1.57463 11.0458 1.79568 10.8693 2.04626 10.7478C2.29684 10.6264 2.57071 10.5631 2.84817 10.5625H41.1672L42.3313 4.04766C42.492 3.15821 42.953 2.35412 43.6341 1.77469C44.3153 1.19525 45.1738 0.876978 46.061 0.875H50.3609C50.865 0.875 51.3484 1.07913 51.7048 1.44248C52.0612 1.80583 52.2614 2.29864 52.2614 2.8125C52.2614 3.32636 52.0612 3.81917 51.7048 4.18252C51.3484 4.54587 50.865 4.75 50.3609 4.75H46.061L39.5518 41.3203C40.4798 42.1537 41.1616 43.2343 41.5206 44.4408C41.8795 45.6474 41.9014 46.932 41.5838 48.1506C41.2662 49.3691 40.6216 50.4732 39.7225 51.339C38.8234 52.2047 37.7054 52.7977 36.4939 53.0515C35.2825 53.3053 34.0257 53.2097 32.8646 52.7755C31.7035 52.3414 30.6841 51.5858 29.9209 50.5937C29.1577 49.6016 28.6809 48.4122 28.5441 47.1591C28.4073 45.9061 28.6159 44.6389 29.1465 43.5H16.4606C17.0783 44.8276 17.2563 46.3238 16.9678 47.7634C16.6794 49.203 15.9401 50.5082 14.8612 51.4825C13.7822 52.4567 12.4221 53.0474 10.9855 53.1655C9.54884 53.2837 8.11343 52.9229 6.89528 52.1376C5.67713 51.3522 4.74215 50.1847 4.23108 48.8108C3.72 47.437 3.66047 45.931 4.06144 44.5197C4.46242 43.1083 5.30221 41.8679 6.45441 40.9852C7.60662 40.1024 9.0089 39.6251 10.4502 39.625H35.9883L37.0336 33.8125H9.47619C8.14172 33.8118 6.84975 33.334 5.82529 32.4622C4.80082 31.5904 4.10878 30.3798 3.86969 29.0414ZM32.3061 46.4062C32.3061 46.981 32.4733 47.5429 32.7865 48.0209C33.0998 48.4988 33.545 48.8713 34.0659 49.0913C34.5868 49.3112 35.16 49.3688 35.713 49.2567C36.266 49.1445 36.7739 48.8677 37.1726 48.4613C37.5713 48.0548 37.8428 47.537 37.9528 46.9732C38.0628 46.4095 38.0064 45.8251 37.7906 45.2941C37.5748 44.763 37.2094 44.3091 36.7406 43.9898C36.2718 43.6704 35.7207 43.5 35.1568 43.5C34.4008 43.5 33.6757 43.8062 33.141 44.3512C32.6064 44.8962 32.3061 45.6355 32.3061 46.4062ZM7.59944 46.4062C7.59944 46.981 7.76664 47.5429 8.07988 48.0209C8.39313 48.4988 8.83836 48.8713 9.35927 49.0913C9.88018 49.3112 10.4534 49.3688 11.0064 49.2567C11.5594 49.1445 12.0673 48.8677 12.466 48.4613C12.8647 48.0548 13.1362 47.537 13.2462 46.9732C13.3562 46.4095 13.2997 45.8251 13.084 45.2941C12.8682 44.763 12.5028 44.3091 12.034 43.9898C11.5652 43.6704 11.014 43.5 10.4502 43.5C9.69413 43.5 8.96903 43.8062 8.43441 44.3512C7.89979 44.8962 7.59944 45.6355 7.59944 46.4062ZM40.4783 14.4375H5.12878L7.59944 28.3391C7.67772 28.7881 7.90884 29.1945 8.25213 29.4869C8.59542 29.7793 9.02887 29.9388 9.47619 29.9375H37.7225L40.4783 14.4375Z" fill="#740000"/>
</svg>
