<svg width="35" height="35" viewBox="0 0 35 35" fill="none" xmlns="http://www.w3.org/2000/svg">
<path d="M6.25 8.125V28.75C6.25 29.7445 6.64509 30.6984 7.34835 31.4016C8.05161 32.1049 9.00543 32.5 10 32.5H25C25.9945 32.5 26.9484 32.1049 27.6516 31.4016C28.3549 30.6984 28.75 29.7445 28.75 28.75V8.125M11.875 8.125C11.875 6.63315 12.4676 5.20241 13.5225 4.14752C14.5774 3.09263 16.0081 2.5 17.5 2.5V2.5C18.9918 2.5 20.4226 3.09263 21.4775 4.14752C22.5324 5.20241 23.125 6.63315 23.125 8.125V8.125H11.875ZM11.875 8.125H23.125H11.875ZM11.875 8.125H6.25H11.875ZM23.125 8.125H28.75H23.125ZM32.5 8.125H28.75H32.5ZM2.5 8.125H6.25H2.5Z" stroke="#740000" stroke-width="5" stroke-linecap="round" stroke-linejoin="round"/>
</svg>
